<svg version="1.1" id="Icon" xmlns="http://www.w3.org/2000/svg" x="0" y="0" viewBox="0 0 60 60" style="enable-background:new 0 0 60 60" xml:space="preserve"><style>.st1{fill:#fff}</style><path id="BG" d="M54.6 0H5.4C2.4 0 0 2.4 0 5.4v49.1c0 3 2.4 5.4 5.4 5.4h49.1c3 0 5.4-2.4 5.4-5.4V5.4c.1-3-2.3-5.4-5.3-5.4" style="fill:#dc395f"/><path id="Path_6607" class="st1" d="M20.1 18.9c2 0 3.6-1.7 3.6-3.7S22 11.6 20 11.6s-3.6 1.6-3.6 3.6c0 2.1 1.6 3.7 3.7 3.7-.1 0-.1 0 0 0"/><path id="Path_6608" class="st1" d="M12.5 38.2c-.2.9-.3 1.8-.3 2.7 0 3.2 1.7 5.3 5.4 5.3 3 0 5.5-1.8 7.3-4.7l-1.1 4.3h6L33.2 32c.9-3.5 2.5-5.3 5.1-5.3 1.7-.1 3.1 1.1 3.2 2.8v.5c0 .7-.1 1.3-.3 1.9l-1.8 6.4c-.3.9-.4 1.8-.4 2.7 0 3 1.8 5.2 5.5 5.2 3.2 0 5.7-2 7.1-7l-2.4-.9c-1.2 3.3-2.2 3.9-3 3.9-.8 0-1.2-.5-1.2-1.6 0-.6.1-1.1.3-1.7l1.7-6.2c.4-1.3.6-2.6.6-3.9 0-4.6-2.8-7.1-6.2-7.1-3.2 0-6.4 2.9-8 5.9l1.2-5.4h-9.2L24.1 27h4.3l-2.7 10.6c-2.1 4.6-5.9 4.7-6.4 4.6-.8-.2-1.3-.5-1.3-1.5 0-.8.2-1.7.4-2.5l4-16H12.2L11 27h4.3l-2.8 11.2"/></svg>