<svg xmlns="http://www.w3.org/2000/svg" viewBox="0 0 105.2 83.5" style="enable-background:new 0 0 105.2 83.5" xml:space="preserve"><path d="M0 83.5h10.4c2.9 0 5-2.5 5-5.6.1-2.4-1.7-4.4-4-4.6H11v-.2c2-.1 3.6-1.2 3.6-4.2s-1.9-5-5.2-5H0v19.6zm4.3-8.1h4.9c.9-.1 1.7.6 1.8 1.5v1.3c.1.9-.6 1.7-1.5 1.8H4.3v-4.6zm0-7.9h4.2c.9-.1 1.7.6 1.8 1.5v1.1c.1.9-.6 1.7-1.5 1.8H4.3v-4.4zm27.7 16v-3.8h-9v-4.2h7.8v-3.8H23v-4h9v-3.8H18.7v19.5H32zm13 0L51.4 64h-4.2l-2.9 9.4-1.5 6.1h-.1l-1.5-6.1-2.9-9.4H34l6.3 19.5H45zm22.2 0v-3.8h-9v-4.2H66v-3.8h-7.8v-4h9v-3.8H53.9v19.5h13.3zm7.9-7.2h3.1l3.4 7.2h4.7l-3.8-7.7c2.3-.9 3.7-3.2 3.6-5.6 0-3.7-2.3-6.2-5.9-6.2h-9.3v19.5h4.3v-7.2zm0-3.6v-5.1h4.5c1-.1 1.9.6 2 1.6v1.6c.1 1-.7 1.9-1.7 1.9H75.1zM94 76.3h3l3.4 7.2h4.7l-3.8-7.7c2.3-.9 3.7-3.2 3.6-5.6 0-3.7-2.3-6.2-5.9-6.2h-9.3v19.5H94v-7.2zm0-3.6v-5.1h4.5c1-.1 1.9.6 2 1.6v1.6c.1 1-.7 1.9-1.7 1.9H94z" style="fill:#211b1b"/><path d="M57.5 29.1c.6-.3 1.2-.7 1.6-1.2.5-.5.8-1.1 1.1-1.8.3-.7.4-1.5.4-2.2 0-.7-.1-1.5-.4-2.2-.3-.5-.6-1-1.1-1.4-.4-.4-.9-.6-1.4-.8-.5-.2-1-.3-1.5-.3V19c.5 0 1-.1 1.4-.3.4-.2.8-.4 1.2-.8.4-.4.6-.8.8-1.3.2-.6.3-1.3.3-1.9.1-1.4-.4-2.7-1.4-3.7-1-1-2.4-1.5-3.9-1.4h-9.7v19.9h10.5c.8.1 1.5-.1 2.1-.4zm-8.2-15.8h4.3c.5 0 1 .1 1.3.5.3.4.5.8.5 1.3v.9c0 .5-.1 1-.5 1.3-.4.3-.8.5-1.3.5h-4.3v-4.5zm0 12.6v-4.6h5c.5 0 1 .1 1.4.5.3.3.5.8.5 1.3v1c0 .5-.2 1-.5 1.3-.4.3-.9.5-1.4.5h-5zM33.1 0v39h39V0h-39zm35 35h-31V4h31v31z" style="fill:#096a61"/></svg>