<svg xmlns="http://www.w3.org/2000/svg" viewBox="0 0 154.1 33.5" style="enable-background:new 0 0 154.1 33.5" xml:space="preserve"><path d="M48.9 26.5h10.4c2.9 0 5-2.5 5-5.6.1-2.4-1.7-4.4-4-4.6h-.4v-.2c2-.1 3.6-1.2 3.6-4.2s-1.9-5-5.2-5h-9.5v19.6zm4.3-8h4.9c.9-.1 1.7.6 1.8 1.5v1.3c.1.9-.6 1.7-1.5 1.8h-5.2v-4.6zm0-7.9h4.2c.9-.1 1.7.6 1.8 1.5v1.1c.1.9-.6 1.7-1.5 1.8h-4.5v-4.4zm27.7 15.9v-3.8h-9v-4.2h7.8v-3.8h-7.8v-4h9V7H67.6v19.5h13.3zm13 0L100.2 7H96l-2.9 9.4-1.5 6.1h-.1L90 16.4 87.1 7h-4.3l6.3 19.5h4.8zm22.2 0v-3.8h-9v-4.2h7.8v-3.8H107v-4h9V7h-13.3v19.5h13.4zm7.9-7.1h3.1l3.4 7.2h4.7l-3.8-7.7c2.3-.9 3.7-3.2 3.6-5.6 0-3.7-2.3-6.2-5.9-6.2h-9.3v19.5h4.3v-7.2zm0-3.6v-5.1h4.5c1-.1 1.9.6 2 1.6v1.6c.1 1-.7 1.9-1.7 1.9H124zm18.9 3.6h3l3.4 7.2h4.7l-3.8-7.7c2.3-.9 3.7-3.2 3.6-5.6 0-3.7-2.3-6.2-5.9-6.2h-9.3v19.5h4.3v-7.2zm0-3.6v-5.1h4.5c1-.1 1.9.6 2 1.6v1.6c.1 1-.7 1.9-1.7 1.9H142.9z" style="fill:#fff"/><path d="M0 0v33.5h33.5V0H0zm29.5 29.5H4V4h25.5v25.5zM21 25c.5-.2 1-.6 1.4-1 .4-.5.7-1 .9-1.6.2-.6.3-1.3.3-1.9 0-.6-.1-1.3-.4-1.9-.2-.5-.5-.9-.9-1.2-.4-.3-.8-.5-1.2-.7-.4-.1-.8-.2-1.3-.2v-.1c.4 0 .8-.1 1.2-.2.4-.1.7-.4 1-.6.3-.3.5-.7.7-1.1.2-.5.3-1.1.3-1.7.1-1.2-.4-2.3-1.2-3.2-.9-.8-2.1-1.3-3.3-1.2h-8.3v17.1h9.1c.5-.1 1.1-.2 1.7-.5zm-7.1-13.6h3.7c.4 0 .8.1 1.2.4.3.3.4.7.4 1.2v.7c0 .4-.1.8-.4 1.2-.3.3-.7.4-1.2.4h-3.7v-3.9zm0 10.9v-3.9h4.3c.4 0 .8.1 1.2.4.3.3.5.7.4 1.1v.8c0 .4-.1.8-.4 1.1-.3.3-.7.4-1.2.4h-4.3z" style="fill:#fdd746"/></svg>