<svg version="1.1" id="Icon" xmlns="http://www.w3.org/2000/svg" x="0" y="0" viewBox="0 0 60 60" style="enable-background:new 0 0 60 60" xml:space="preserve"><style>.st1{fill:#eb6c00}.st2{fill:#fdad00}.st3{fill:#fdd231}</style><path id="Path_6590" d="M30 2.9 13.1 4.6 0 22.2l30 34.9 30-34.9L46.9 4.6 30 2.9z" style="fill:#fdb300"/><path id="Path_6591" class="st1" d="m0 22.2 30 34.9-17.8-34.9H0z"/><path id="Path_6592" class="st1" d="M47.8 22.2 30 57.1l30-34.9H47.8z"/><path id="Path_6593" class="st2" d="M12.2 22.2 30 57.1l17.8-34.9H12.2z"/><path id="Path_6594" class="st3" d="m13.1 4.6-.9 17.6L30 2.9 13.1 4.6z"/><path id="Path_6595" class="st3" d="m47.8 22.2-.9-17.6L30 2.9l17.8 19.3z"/><path id="Path_6596" class="st2" d="M47.8 22.2H60L46.9 4.6l.9 17.6z"/><path id="Path_6597" class="st2" d="M0 22.2h12.2l.9-17.6L0 22.2z"/><path id="Path_6598" d="M30 2.9 12.2 22.2h35.7L30 2.9z" style="fill:#feeeb7"/></svg>