<svg version="1.1" id="Icon" xmlns="http://www.w3.org/2000/svg" x="0" y="0" viewBox="0 0 60 60" style="enable-background:new 0 0 60 60" xml:space="preserve"><style>.st1{fill:#ff61f6}</style><path id="BG" d="M10.6.7h38.8C55.2.7 60 5.5 60 11.4v37.3c0 5.9-4.8 10.6-10.6 10.6H10.6C4.8 59.2 0 54.5 0 48.6V11.4C0 5.5 4.8.7 10.6.7z" style="fill:#470137"/><path id="Path_6600" class="st1" d="M31.6 16.1 24 28.5l8 13.1c.1.1.1.2 0 .3 0 .1-.1 0-.3 0H26c-.4 0-.7 0-.8-.3-.5-1.1-1.1-2.1-1.6-3.1s-1.1-2.1-1.7-3.2L20.1 32c-.5 1.1-1.1 2.2-1.7 3.2s-1.1 2.1-1.7 3.2c-.6 1.1-1.1 2.1-1.7 3.2-.1.4-.3.4-.6.4H8.9c-.1 0-.2 0-.2-.1v-.3l7.8-12.8L9 16.1c-.1-.1-.1-.2 0-.3.1-.1.2-.1.2-.1H15.3c.1.1.2.1.3.2.5 1.1 1 2.2 1.6 3.2.6 1.1 1.2 2.1 1.8 3.2.6 1.1 1.1 2.1 1.7 3.2h.1c.5-1.1 1.1-2.2 1.6-3.2s1.1-2.1 1.7-3.2 1.1-2.1 1.7-3.2c0-.1.1-.2.1-.3.1-.1.2-.1.3 0h5.3c.1 0 .2 0 .3.2-.2.2-.2.3-.2.3z"/><path id="Path_6601" class="st1" d="M43.1 42.5c-1.9 0-3.7-.4-5.4-1.1-1.6-.7-2.9-1.9-3.8-3.4-1-1.7-1.5-3.7-1.4-5.7 0-1.9.4-3.7 1.4-5.3.9-1.6 2.3-3 4-3.9 1.9-1 4.1-1.5 6.3-1.5h1.3v-7.9c0-.2.1-.3.3-.3h5.1c.1 0 .2.1.3.2V39c0 .5.1 1 .1 1.5 0 .2-.1.3-.3.4-1.3.6-2.7 1-4.1 1.2-1.2.3-2.5.4-3.8.4zm2.5-5v-11c-.2-.1-.4-.1-.7-.1h-.8c-1 0-1.9.2-2.8.6-.9.4-1.6 1.1-2.1 1.8-.6 1-.9 2.1-.8 3.2 0 .9.1 1.8.4 2.6.2.7.6 1.3 1.1 1.8.5.5 1.1.8 1.7 1 .7.2 1.4.3 2.1.3h1.1c.2-.1.5-.1.8-.2z"/></svg>